<?xml version="1.0" encoding="utf-8"?>
<!-- Generator: Adobe Illustrator 16.0.0, SVG Export Plug-In . SVG Version: 6.00 Build 0)  -->
<!DOCTYPE svg PUBLIC "-//W3C//DTD SVG 1.1//EN" "http://www.w3.org/Graphics/SVG/1.1/DTD/svg11.dtd">
<svg version="1.1" id="Ebene_1" xmlns="http://www.w3.org/2000/svg" xmlns:xlink="http://www.w3.org/1999/xlink" x="0px" y="0px"
	 width="960px" height="560px" viewBox="0 0 960 560" enable-background="new 0 0 960 560" xml:space="preserve">
<path d="M487.54,280l117.792-117.792c1.752-1.752,1.752-4.583,0-6.335c-1.751-1.751-4.583-1.751-6.334,0L481.205,273.665
	L363.413,155.873c-1.752-1.751-4.583-1.751-6.335,0c-1.751,1.752-1.751,4.583,0,6.335L474.87,280L357.078,397.793
	c-1.751,1.751-1.751,4.583,0,6.334c0.878,0.874,2.025,1.313,3.167,1.313s2.294-0.439,3.167-1.313l117.792-117.792l117.793,117.792
	c0.878,0.874,2.024,1.313,3.167,1.313s2.294-0.439,3.167-1.313c1.752-1.751,1.752-4.583,0-6.334L487.54,280z"/>
</svg>
