<?xml version="1.0" encoding="utf-8"?>
<!-- Generator: Adobe Illustrator 16.0.0, SVG Export Plug-In . SVG Version: 6.00 Build 0)  -->
<!DOCTYPE svg PUBLIC "-//W3C//DTD SVG 1.1//EN" "http://www.w3.org/Graphics/SVG/1.1/DTD/svg11.dtd">
<svg version="1.1" id="Ebene_1" xmlns="http://www.w3.org/2000/svg" xmlns:xlink="http://www.w3.org/1999/xlink" x="0px" y="0px"
	 width="960px" height="560px" viewBox="0 0 960 560" enable-background="new 0 0 960 560" xml:space="preserve">
<g>
	<path d="M676.337,89.232c-3.92-2.67-8.901-3.252-13.346-1.537L481,158.377L299.009,87.696c-4.426-1.716-9.421-1.133-13.346,1.537
		c-3.92,2.688-6.263,7.132-6.263,11.881v283.62c0,5.904,3.606,11.209,9.094,13.382L475.7,472.259
		c0.157,0.063,0.331,0.041,0.493,0.095c1.559,0.56,3.167,0.918,4.807,0.918s3.253-0.358,4.807-0.918
		c0.166-0.054,0.336-0.031,0.493-0.095l187.206-74.144c5.487-2.173,9.094-7.478,9.094-13.382v-283.62
		C682.6,96.365,680.257,91.921,676.337,89.232z M308.193,122.156l158.409,61.52v254.021l-158.409-62.747V122.156z M653.807,374.949
		l-158.412,62.742V183.676l158.408-61.52v252.793H653.807z"/>
	<path d="M525.083,246.485c1.734,0,3.49-0.314,5.21-0.981l99.044-38.465c7.415-2.88,11.089-11.218,8.208-18.632
		c-2.872-7.405-11.214-11.11-18.633-8.207l-99.044,38.465c-7.409,2.881-11.083,11.218-8.207,18.633
		C513.87,242.991,519.312,246.485,525.083,246.485z"/>
	<path d="M525.083,313.631c1.734,0,3.49-0.312,5.21-0.98l99.044-38.465c7.415-2.881,11.089-11.218,8.208-18.632
		c-2.872-7.406-11.214-11.106-18.633-8.208l-99.044,38.465c-7.409,2.881-11.083,11.218-8.207,18.633
		C513.87,310.142,519.312,313.631,525.083,313.631z"/>
	<path d="M525.083,380.777c1.734,0,3.49-0.313,5.21-0.98l99.044-38.466c7.415-2.88,11.089-11.218,8.208-18.632
		c-2.872-7.406-11.214-11.102-18.633-8.207l-99.044,38.465c-7.409,2.881-11.083,11.218-8.207,18.632
		C513.87,377.288,519.312,380.777,525.083,380.777z"/>
	<path d="M442.136,218.664l-99.043-38.465c-7.446-2.912-15.765,0.793-18.632,8.207c-2.881,7.41,0.793,15.752,8.207,18.632
		l99.044,38.465c1.716,0.667,3.477,0.981,5.21,0.981c5.771,0,11.214-3.49,13.427-9.188
		C453.22,229.882,449.546,221.545,442.136,218.664z"/>
	<path d="M442.136,285.811l-99.043-38.465c-7.446-2.908-15.765,0.797-18.632,8.208c-2.881,7.41,0.793,15.751,8.207,18.632
		l99.044,38.465c1.716,0.668,3.477,0.98,5.21,0.98c5.771,0,11.214-3.489,13.427-9.188
		C453.22,297.028,449.546,288.691,442.136,285.811z"/>
	<path d="M442.136,352.957l-99.043-38.465c-7.446-2.904-15.765,0.797-18.632,8.207c-2.881,7.41,0.793,15.752,8.207,18.632
		l99.044,38.466c1.716,0.667,3.477,0.98,5.21,0.98c5.771,0,11.214-3.489,13.427-9.188
		C453.22,364.18,449.546,355.838,442.136,352.957z"/>
</g>
</svg>
